{"title":"Torchwood S01,02,03 &amp; Doctor Who eps 272p.H264.AAC-k3n","uid":6661902,"size":4589628496,"categoryP":"video","categoryS":"tv_shows","magnet":"?xt=urn:btih:778cabe8ce1781bc1f47b85ae7ada88ffe31c174&amp;dn=Torchwood+S01%2C02%2C03+%26+Doctor+Who+eps+272p.H264.AAC-k3n&amp;tr=udp%3A%2F%2Ftracker.openbittorrent.com%3A80&amp;tr=udp%3A%2F%2Fopen.demonii.com%3A1337&amp;tr=udp%3A%2F%2Ftracker.coppersurfer.tk%3A6969&amp;tr=udp%3A%2F%2Fexodus.desync.com%3A6969","seeders":0,"leechers":0,"uploader":"k3nd00d","files":-1,"time":1315548072,"description":"All of Torchwood seasons 1, 2 and 3 and all relevant Doctor Who episodes including those related to but before Torchwood spun-off on its own. Does not include Face of Boe episodes from Doctor Who, as that may seem unrelated to many folks.\n\n\n\nEXAMPLE ENCODE DETAILS\n\n\nGeneral\nComplete name                    : Torchwood.S01E01.Everything.Changes.PDTV.272p.H264.AAC-k3n.m4v\nFormat                           : MPEG-4\nFormat profile                   : Base Media / Version 2\nCodec ID                         : mp42\nFile size                        : 105 MiB\nDuration                         : 50mn 45s\nOverall bit rate                 : 290 Kbps\n\nVideo\nID                               : 1\nFormat                           : AVC\nFormat/Info                      : Advanced Video Codec\nFormat profile                   : &lt;a class=&quot;__cf_email__&quot; href=&quot;/cdn-cgi/l/email-protection&quot; data-cfemail=&quot;11537062747d787f74515d233f20&quot;&gt;[email&amp;#160;protected]&lt;/a&gt;&lt;script data-cfhash='f9e31' type=&quot;text/javascript&quot;&gt;\n/* &lt;![CDATA[ */!function(){try{var t=&quot;currentScript&quot;in document?document.currentScript:function(){for(var t=document.getElementsByTagName(&quot;script&quot;),e=t.length;e--;)if(t[e].getAttribute(&quot;data-cfhash&quot;))return t[e]}();if(t&amp;&amp;t.previousSibling){var e,r,n,i,c=t.previousSibling,a=c.getAttribute(&quot;data-cfemail&quot;);if(a){for(e=&quot;&quot;,r=parseInt(a.substr(0,2),16),n=2;a.length-n;n+=2)i=parseInt(a.substr(n,2),16)^r,e+=String.fromCharCode(i);e=document.createTextNode(e),c.parentNode.replaceChild(e,c)}t.parentNode.removeChild(t);}}catch(u){}}()/* ]]&gt; */&lt;/script&gt;\nFormat settings, CABAC           : No\nFormat settings, ReFrames        : 2 frames\nFormat settings, GOP             : M=1, N=23\nCodec ID                         : avc1\nCodec ID/Info                    : Advanced Video Coding\nDuration                         : 50mn 44s\nBit rate mode                    : Variable\nBit rate                         : 240 Kbps\nWidth                            : 480 pixels\nHeight                           : 272 pixels\nDisplay aspect ratio             : 16:9\nFrame rate mode                  : Constant\nFrame rate                       : 25.000 fps\nColor space                      : YUV\nChroma subsampling               : 4:2:0\nBit depth                        : 8 bits\nScan type                        : Progressive\nBits/(Pixel*Frame)               : 0.074\nStream size                      : 87.1 MiB (83%)\nWriting library                  : x264 core 79\n\nAudio\nID                               : 2\nFormat                           : AAC\nFormat/Info                      : Advanced Audio Codec\nFormat profile                   : LC\nCodec ID                         : 40\nDuration                         : 50mn 45s\nBit rate mode                    : Variable\nBit rate                         : 48.0 Kbps\nMaximum bit rate                 : 65.3 Kbps\nChannel(s)                       : 2 channels\nChannel positions                : Front: L R\nSampling rate                    : 24.0 KHz\nCompression mode                 : Lossy\nStream size                      : 17.4 MiB (17%)\n","torrent":{"xt":"urn:btih:778cabe8ce1781bc1f47b85ae7ada88ffe31c174","amp;dn":"Torchwood+S01%2C02%2C03+%26+Doctor+Who+eps+272p.H264.AAC-k3n","amp;tr":["udp%3A%2F%2Ftracker.openbittorrent.com%3A80","udp%3A%2F%2Fopen.demonii.com%3A1337","udp%3A%2F%2Ftracker.coppersurfer.tk%3A6969","udp%3A%2F%2Fexodus.desync.com%3A6969"],"infoHash":"778cabe8ce1781bc1f47b85ae7ada88ffe31c174","infoHashBuffer":{"type":"Buffer","data":[119,140,171,232,206,23,129,188,31,71,184,90,231,173,168,143,254,49,193,116]},"announce":[],"urlList":[]}}